# xmcd
#
# Track frame offsets:
#	183
#	10045
#	26078
#	37903
#	48595
#	59198
#	70215
#	82598
#	94103
#	106813
#
# Disc length: 1585 seconds
#
# Revision: 2
# Processed by: cddbd v1.5.1PL0 Copyright (c) Steve Scherf et al.
# Submitted via: dBpowerAMP V4.0
#
DISCID=76062f0a
DTITLE=CrystalGayle,AKABrendaGailWebb,Paintsville,KY - SomebodyLovesYou;EMI,ManhattanCDP7-48382-2
DYEAR=1975
DGENRE=Country
TTITLE0=BeforeI'mFoolEnough(AllenReynolds;1975,CrystalGayle,AKABrendaGailWebb,Paintsville,KY)
TTITLE1=I'llGetOverYou(RichardLeigh;1975,CrystalGayle,AKABrendaGailWebb,Paintsville,KY)
TTITLE2=SweetBabyOnMyMind(JOwen;1975,CrystalGayle,AKABrendaGailWebb,Paintsville,KY)
TTITLE3=IWantToLoseMeInYou(JRushing,MChapman;1975,CrystalGayle,AKABrendaGailWebb,Paintsville,KY)
TTITLE4=HighTime(BDavid;1975,CrystalGayle,AKABrendaGailWebb,Paintsville,KY)
TTITLE5=SomebodyLovesYou(AReynolds;1975,CrystalGayle,AKABrendaGailWebb,Paintsville,KY)
TTITLE6=WhatYou'veDoneForMe(SMTheoret;1975,CrystalGayle,AKABrendaGailWebb,Paintsville,KY)
TTITLE7=ComingCloser(CGayle,BGatzimos;1975,CrystalGayle,AKABrendaGailWebb,Paintsville,KY)
TTITLE8=DreamingMyDreamsWithYou(AllenReynolds;1975,CrystalGayle,AKABrendaGailWebb,Paintsville,KY)
TTITLE9=WhatI'veBeenNeedin'(RGriff;1975,CrystalGayle,AKABrendaGailWebb,Paintsville,KY)
EXTD=more info\nMillenniumMusicProjectFormat, syntax as follows:\nTitle{Subtitle}[info](Lyricist;Composer;Date,Artist,Location)[info]\ncorrections to: windking3@yahoo.com
EXTT0=
EXTT1=
EXTT2=
EXTT3=
EXTT4=
EXTT5=
EXTT6=
EXTT7=
EXTT8=
EXTT9=
PLAYORDER=
